<svg version="1.1" xmlns="http://www.w3.org/2000/svg" style="display: block;" viewBox="0 0 2048 2048" width="1024" height="1024" preserveAspectRatio="none">
<defs>
	<linearGradient id="Gradient1" gradientUnits="userSpaceOnUse" x1="417.194" y1="1193.07" x2="438.373" y2="1366.38">
		<stop class="stop0" offset="0" stop-opacity="1" stop-color="rgb(201,64,29)"/>
		<stop class="stop1" offset="1" stop-opacity="1" stop-color="rgb(255,122,58)"/>
	</linearGradient>
	<linearGradient id="Gradient2" gradientUnits="userSpaceOnUse" x1="1021.32" y1="42.3434" x2="1025.54" y2="970.005">
		<stop class="stop0" offset="0" stop-opacity="1" stop-color="rgb(103,194,204)"/>
		<stop class="stop1" offset="1" stop-opacity="1" stop-color="rgb(188,219,204)"/>
	</linearGradient>
</defs>
<path transform="translate(0,0)" fill="rgb(5,12,13)" d="M 0 0 L 2048 0 L 2048 76.5204 L 2048 967.193 L 2048 1037.95 L 2048 1117.98 L 2048 1156.93 L 2048 1236.66 L 2048 1264.93 L 2048 1735.24 L 2048 1755.76 L 2048 1837.88 L 2048 1861.74 L 2048 2048 L 0 2048 L 0 1839.61 L 0 1814.05 L 0 1255.62 L 0 1230.15 L 0 1153.96 L 0 1118 L 0 1036.92 L 0 967.961 L 0 47 L 0 0 z"/>
<path transform="translate(0,0)" fill="url(#Gradient2)" d="M 0 0 L 2048 0 L 2048 76.5204 L 2048 967.193 L 2048 1037.95 L 2048 1117.98 L 2048 1156.93 L 2048 1236.66 L 2048 1264.93 C 2033.06 1265.2 2017.8 1265.76 2002.91 1264.35 C 1975.94 1261.79 1949.16 1256.19 1922.01 1255.86 C 1892.85 1255.5 1864.03 1262.11 1834.91 1263.35 C 1815.83 1264.16 1798.13 1261.66 1779.37 1258.7 C 1778.32 1251.02 1776.78 1243.38 1775.38 1235.76 C 1767.52 1206.94 1755.14 1182.47 1739.47 1157.25 C 1729.59 1143.64 1719.02 1130.55 1707.79 1118.02 C 1678.23 1087.38 1645.5 1062.13 1610.16 1038.52 C 1595 1029.77 1580.01 1020.84 1564.66 1012.39 C 1541.1 999.418 1517.22 987.066 1496.03 970.316 C 1479.18 958.387 1466.55 939.286 1462.1 919.14 C 1455.8 890.58 1462.49 852.472 1463.6 822.767 C 1465.74 765.811 1460.86 707.9 1445.77 652.832 C 1417.19 548.538 1353.27 461.434 1258.57 408.009 C 1157.9 351.22 1033.92 343.575 923.705 374.204 C 812.922 404.991 742.839 466.697 686.903 565.633 C 666.819 566.116 618.629 566.094 602.906 577.007 C 596.447 581.49 594.363 588.355 593.143 595.799 C 591.563 605.447 589.481 625.084 595.776 633.169 C 600.038 638.641 606.642 639.516 613.038 640.454 C 611.644 671.013 613.825 703.063 622.541 732.484 C 625.479 742.401 632.369 752.103 633.522 762.382 C 634.855 774.272 632.224 787.304 632.006 799.321 C 631.166 845.691 636.834 888.633 660.479 929.239 C 641.846 947.99 615.077 959.157 591.124 969.538 C 561.028 982.536 530.332 994.285 500.469 1007.78 C 479.823 1017.11 459.814 1027.59 439.804 1038.19 C 403.64 1061.32 373.475 1084.13 346.7 1118.24 C 339.236 1129.59 332.025 1141.08 325.881 1153.21 C 317.922 1172.61 309.532 1195.87 318.484 1216.46 C 319.437 1218.65 320.595 1220.73 321.817 1222.78 C 327.307 1225.94 331.743 1227.86 338.109 1228.44 C 331.978 1234.32 325.664 1240.1 319.916 1246.36 C 304.188 1243.89 288.666 1241.93 272.699 1243.15 C 246.612 1245.15 221.553 1252.85 195.225 1253.68 C 165.174 1254.62 136.857 1244.81 106.974 1244.06 C 71.366 1243.17 35.4952 1252.78 0 1255.62 L 0 1230.15 L 0 1153.96 L 0 1118 L 0 1036.92 L 0 967.961 L 0 47 L 0 0 z"/>
<path transform="translate(0,0)" fill="rgb(101,194,203)" d="M 0 0 L 2048 0 L 2048 76.5204 C 2047.86 76.7778 2047.71 77.0324 2047.57 77.2927 C 2045.8 80.6837 2045.52 83.5476 2045.3 87.3202 L 2043.9 88.5761 C 2042.04 88.0297 2041.69 87.4532 2039.9 88.3583 C 2025.47 95.6218 2016.9 88.8407 2003.91 93.462 C 1996.26 96.1817 1983.53 91.5154 1978.67 93.9249 C 1975.43 95.533 1972.93 96.5945 1969.35 97.0582 C 1968.3 96.5143 1967.26 95.9713 1966.24 95.3675 C 1961.19 92.3697 1957.44 92.5769 1951.76 93.3324 C 1945.36 94.1836 1940.45 95.2298 1934.38 97.5138 C 1928.84 99.601 1915.74 93.5882 1898.24 101.605 C 1890.56 105.122 1874.69 95.3774 1869.03 98.1544 C 1867.95 98.6848 1866.75 101.187 1866.2 102.225 C 1860.94 103.338 1857.36 100.514 1853.02 97.8129 C 1850.77 98.7915 1848.57 99.8173 1846.36 100.899 C 1844.11 99.8394 1843.08 98.7181 1841.38 96.9839 C 1834.03 97.6517 1822.52 99.7141 1816.1 103.282 C 1815.49 103.051 1814.89 102.81 1814.28 102.59 C 1809.72 100.946 1805.3 100.823 1800.57 101.581 L 1798.04 103.535 C 1797.69 103.231 1797.36 102.917 1797 102.622 C 1795.01 100.957 1792.8 99.1275 1790.05 99.7203 C 1785.66 100.668 1782.17 105.882 1777.36 103.949 C 1760.36 97.124 1744.53 101.012 1732.84 95.8364 C 1727.39 93.4237 1720.13 91.0419 1714.21 90.9931 C 1704.45 90.9126 1691.79 96.39 1681.46 97.5679 C 1669.22 98.9635 1652.45 96.8166 1639.66 96.7301 C 1636.28 98.4159 1633.35 100.345 1630.31 102.591 L 1628.42 99.9218 L 1626.54 99.7967 C 1616.22 99.0671 1600.27 98.1246 1592.14 91.5507 L 1590.55 91.4218 C 1589.95 92.4169 1589.37 93.4207 1588.8 94.4322 C 1581.74 94.4929 1576.89 92.8802 1570.98 97.6094 C 1570.61 96.3439 1570.36 95.2427 1570.16 93.9284 L 1569.04 93.3941 C 1567.11 95.0511 1565.27 96.7702 1563.42 98.524 C 1556.84 97.3278 1549.71 92.0867 1543.45 94.8898 C 1539.99 96.4383 1531.89 94.0785 1527.83 93.781 C 1520.5 93.2457 1504.19 100.649 1499.19 98.2754 C 1497.55 97.4957 1495.92 96.0946 1494.46 95.0019 C 1490.26 95.0869 1479.37 96.3401 1475.8 94.6328 C 1473.89 93.7207 1471.8 90.6478 1469.83 90.1163 C 1463.83 88.4966 1443.13 96.0116 1433.98 95.357 C 1422.43 94.5312 1422.34 88.0096 1410.51 94.1704 C 1405.72 92.548 1408.29 89.8102 1402.1 91.9401 C 1397.99 93.3499 1393.47 95.1642 1389.12 95.447 C 1384.41 95.7532 1376.06 93.7412 1371.82 95.5725 C 1370.1 96.3173 1364.55 101.423 1363.39 101.433 C 1359.21 101.466 1355.76 97.678 1350.97 98.7461 C 1344.21 100.253 1334.71 106.494 1329.45 107.409 C 1324.76 108.224 1318.07 104.035 1313.51 104.302 C 1311.05 104.446 1310.92 106.594 1307.57 106.035 L 1306.04 103.337 C 1300.23 103.182 1297 103.609 1292.04 106.709 L 1290.37 106.392 C 1290.25 103.923 1290.68 102.04 1289.09 100.07 C 1282.99 99.8838 1277.25 103.132 1271.34 103.164 C 1266.65 103.189 1262.13 100.093 1256.81 100.065 C 1253.18 100.046 1246.98 100.61 1243.65 99.3892 C 1232.76 95.3931 1239.07 92.1331 1222.88 92.7146 C 1215.66 92.9741 1204.3 94.1907 1197.95 97.495 C 1194.91 99.0807 1191.17 105.331 1187.92 105.384 C 1184.62 105.437 1178.74 102.726 1175.27 101.892 C 1166.78 99.8518 1157.73 107.356 1148.82 105.288 C 1145.54 104.525 1141.98 106.055 1138.86 105.557 C 1134.87 104.922 1131.58 100.1 1127.04 100.775 C 1125.85 100.952 1124.16 102.613 1123.03 102.643 C 1119.56 102.738 1094 90.0487 1085.21 91.1298 C 1076.79 92.1652 1074.09 101.325 1062.86 100.362 C 1062.2 97.9401 1064.01 96.7046 1062.7 94.7308 L 1061.71 95.7842 C 1060.45 97.0905 1059.15 98.3113 1057.81 99.5355 C 1055.24 99.5108 1053.67 97.3186 1051.86 97.4792 C 1048.05 97.8163 1045.64 101.665 1041.33 101.899 L 1040.29 100.83 C 1040.5 97.1281 1040.77 93.5004 1040.43 89.8013 L 1038.94 88.395 C 1037.97 89.715 1037.21 91.039 1036.44 92.4864 C 1030.07 93.2963 1018.47 96.2737 1013.03 92.8994 C 1011.28 88.9593 1011.8 82.907 1009.51 79.771 L 1007.9 80.7718 C 1006.63 87.8237 1010.4 99.195 1003.85 104.105 C 1001.4 105.936 996.827 106.935 993.827 106.25 C 991.594 105.74 989.831 104.482 987.797 103.575 C 977.348 98.9145 962.478 110.142 951.049 101.169 L 950.061 97.8763 C 946.847 96.7428 939.978 96.7504 937.605 95.3292 C 935.777 94.2343 937.897 93.1572 934.584 92.6457 C 933.755 94.1618 933.5 95.004 933.478 96.734 C 926.774 92.1981 925.931 93.4103 918.116 94.8715 C 910.884 96.2238 902.792 100.493 895.883 101.044 C 888.374 101.643 872.437 98.4397 866.896 100.163 C 866.855 102.288 866.74 101.169 867.363 103.505 C 862.141 102.876 858.817 96.6906 853.987 95.6953 C 848.326 94.5291 845.294 99.7352 839.889 95.1172 C 837.957 93.4657 836.605 92.9738 833.998 93.2325 C 822.244 94.3985 812.295 104.982 800.546 101.5 C 797.863 100.704 795.167 99.9993 792.568 98.9532 L 793.551 96.5274 L 792.51 95.7818 C 788.724 96.4226 785.812 98.4628 782.874 100.868 C 776.903 105.756 761.449 105.143 753.673 105.795 C 749.73 100.719 746.731 101.649 740.939 99.9001 C 736.87 98.6713 731.511 99.2558 727.377 100.016 C 722.212 100.965 716.928 96.7194 711.52 96.4058 C 704.737 96.0126 698.954 100.251 692.364 100.849 C 680.474 101.929 669.286 95.737 657.736 100.914 C 655.683 100.767 655.134 100.022 653.683 98.7115 C 649.894 95.2897 646.733 95.7692 641.943 96.0578 C 638.978 97.9222 636.098 99.8801 633.219 101.874 C 632.685 101.579 632.159 101.268 631.616 100.988 C 625.788 97.982 615.656 96.884 609.393 98.3321 C 609.111 98.6029 608.833 98.8787 608.546 99.1444 C 607.402 100.203 607.919 99.861 606.643 100.417 C 606.388 100.077 606.164 99.7103 605.877 99.3958 C 599.62 92.5306 585.726 96.4004 579.841 93.5992 C 577.536 92.5024 578.183 89.5543 575.715 87.734 C 569.051 88.2173 562.759 90.5865 556.17 91.4984 C 549.118 92.4742 523.321 93.0798 517.347 90.9303 C 506.04 86.8624 489.051 83.0589 477.106 84.39 C 471.832 88.1598 471.862 88.1113 465.43 87.0492 C 459.644 86.0937 457.328 85.0351 452.014 88.0354 C 449.212 87.7238 444.911 83.8123 443.186 85.1124 C 440.205 87.3597 438.626 88.2898 434.904 88.5977 C 436.76 90.1118 437.789 89.8693 440.11 90.1742 C 441.192 89.6154 442.254 89.0141 443.3 88.3895 C 445.185 94.0803 451.31 93.9562 453.914 98.9424 C 452.161 99.2789 451.037 99.4002 449.218 99.3068 C 420.852 89.5531 390.771 85.7855 360.875 88.2418 C 358.007 87.9252 355.168 87.964 352.286 87.9433 L 352.184 85.6524 C 353.546 83.8094 354.508 81.9687 355.543 79.9341 L 354.778 78.3867 C 328.811 70.7181 330.745 74.2753 305.27 78.2478 C 300.073 79.0582 294.204 78.4074 289.24 79.5599 C 281.14 81.4403 271.312 86.1499 263.188 86.6464 C 261.074 86.7756 258.674 84.3404 256.286 85.2662 C 254.838 85.8276 253.394 89.264 251.929 89.9264 C 250.229 90.6946 242.319 86.2854 239.574 86.4902 C 236.301 86.7344 231.31 89.7046 228.222 91.0629 C 226.9 89.7877 225.87 88.8928 224.201 88.1107 C 221.829 89.1817 219.623 90.0289 217.106 90.7419 C 215.724 90.3188 214.318 89.9811 212.895 89.7307 C 207.978 88.828 176.37 86.5818 171.935 87.8553 C 170.746 88.1968 168.562 90.2033 167.449 90.9785 C 157.351 90.0066 143.751 89.8795 134.701 95.052 C 131.55 96.8527 123.231 92.9664 119.169 93.023 C 115.849 93.0693 109.525 97.5526 106.001 98.8088 C 100.264 96.6839 84.1739 91.3537 78.6957 92.1141 C 77.0174 93.7096 75.6989 94.9333 73.6195 96.0102 C 72.0561 94.794 71.1977 94.1937 69.2022 93.7745 C 68.7038 93.6698 68.1963 93.6145 67.6933 93.5345 L 67.5315 90.6159 C 61.3244 86.3557 47.1758 96.1977 39.642 95.2979 C 32.719 94.4711 30.1426 89.5799 20.1246 89.3467 C 11.1845 89.1385 9.37185 87.6601 3.49953 81.5095 C 3.66866 70.5142 3.3132 57.48 0 47 L 0 0 z"/>
<path transform="translate(0,0)" fill="rgb(244,198,111)" d="M 360.875 88.2418 C 390.771 85.7855 420.852 89.5531 449.218 99.3068 C 554.378 135.465 615.195 245.256 590.072 353.583 C 564.949 461.909 462.014 533.723 351.674 519.903 C 241.335 506.083 159.291 411.101 161.66 299.924 C 164.03 188.747 250.047 97.3476 360.875 88.2418 z"/>
<path transform="translate(0,0)" fill="rgb(244,198,111)" d="M 0 1036.92 L 332.254 1037.1 L 397.689 1036.94 C 410.337 1036.89 427.688 1034.77 439.804 1038.19 C 403.64 1061.32 373.475 1084.13 346.7 1118.24 C 339.236 1129.59 332.025 1141.08 325.881 1153.21 C 317.922 1172.61 309.532 1195.87 318.484 1216.46 C 319.437 1218.65 320.595 1220.73 321.817 1222.78 C 327.307 1225.94 331.743 1227.86 338.109 1228.44 C 331.978 1234.32 325.664 1240.1 319.916 1246.36 C 304.188 1243.89 288.666 1241.93 272.699 1243.15 C 246.612 1245.15 221.553 1252.85 195.225 1253.68 C 165.174 1254.62 136.857 1244.81 106.974 1244.06 C 71.366 1243.17 35.4952 1252.78 0 1255.62 L 0 1230.15 L 0 1153.96 L 0 1118 L 0 1036.92 z"/>
<path transform="translate(0,0)" fill="rgb(46,163,183)" d="M 0 1153.96 C 29.4129 1155.94 59.1185 1156.01 88.5888 1156.33 C 142.593 1157.21 196.612 1156.58 250.581 1154.44 C 261.005 1154.08 320.165 1150.47 325.881 1153.21 C 317.922 1172.61 309.532 1195.87 318.484 1216.46 C 319.437 1218.65 320.595 1220.73 321.817 1222.78 C 327.307 1225.94 331.743 1227.86 338.109 1228.44 C 331.978 1234.32 325.664 1240.1 319.916 1246.36 C 304.188 1243.89 288.666 1241.93 272.699 1243.15 C 246.612 1245.15 221.553 1252.85 195.225 1253.68 C 165.174 1254.62 136.857 1244.81 106.974 1244.06 C 71.366 1243.17 35.4952 1252.78 0 1255.62 L 0 1230.15 L 0 1153.96 z"/>
<path transform="translate(0,0)" fill="rgb(101,194,203)" d="M 0 1230.15 C 30.7448 1228.07 60.4992 1217.99 91.4944 1216.32 C 126.989 1214.42 160.536 1226.91 195.773 1227.26 C 242.482 1227.72 273.235 1209.97 321.817 1222.78 C 327.307 1225.94 331.743 1227.86 338.109 1228.44 C 331.978 1234.32 325.664 1240.1 319.916 1246.36 C 304.188 1243.89 288.666 1241.93 272.699 1243.15 C 246.612 1245.15 221.553 1252.85 195.225 1253.68 C 165.174 1254.62 136.857 1244.81 106.974 1244.06 C 71.366 1243.17 35.4952 1252.78 0 1255.62 L 0 1230.15 z"/>
<path transform="translate(0,0)" fill="rgb(18,129,156)" d="M 0 1118 L 225.418 1118.01 C 265.798 1118.01 306.335 1117.28 346.7 1118.24 C 339.236 1129.59 332.025 1141.08 325.881 1153.21 C 320.165 1150.47 261.005 1154.08 250.581 1154.44 C 196.612 1156.58 142.593 1157.21 88.5888 1156.33 C 59.1185 1156.01 29.4129 1155.94 0 1153.96 L 0 1118 z"/>
<path transform="translate(0,0)" fill="rgb(244,198,111)" d="M 1610.16 1038.52 L 2048 1037.95 L 2048 1117.98 L 2048 1156.93 L 2048 1236.66 L 2048 1264.93 C 2033.06 1265.2 2017.8 1265.76 2002.91 1264.35 C 1975.94 1261.79 1949.16 1256.19 1922.01 1255.86 C 1892.85 1255.5 1864.03 1262.11 1834.91 1263.35 C 1815.83 1264.16 1798.13 1261.66 1779.37 1258.7 C 1778.32 1251.02 1776.78 1243.38 1775.38 1235.76 C 1767.52 1206.94 1755.14 1182.47 1739.47 1157.25 C 1729.59 1143.64 1719.02 1130.55 1707.79 1118.02 C 1678.23 1087.38 1645.5 1062.13 1610.16 1038.52 z"/>
<path transform="translate(0,0)" fill="rgb(46,163,183)" d="M 1739.47 1157.25 C 1743.91 1155.16 1784.86 1158.05 1793.48 1158 C 1878.41 1157.52 1963.06 1160.63 2048 1156.93 L 2048 1236.66 L 2048 1264.93 C 2033.06 1265.2 2017.8 1265.76 2002.91 1264.35 C 1975.94 1261.79 1949.16 1256.19 1922.01 1255.86 C 1892.85 1255.5 1864.03 1262.11 1834.91 1263.35 C 1815.83 1264.16 1798.13 1261.66 1779.37 1258.7 C 1778.32 1251.02 1776.78 1243.38 1775.38 1235.76 C 1767.52 1206.94 1755.14 1182.47 1739.47 1157.25 z"/>
<path transform="translate(0,0)" fill="rgb(101,194,203)" d="M 1775.38 1235.76 L 1776.63 1234.55 C 1797.28 1237.02 1816.56 1239.02 1837.45 1237.35 C 1866.06 1235.08 1894.16 1228.32 1922.99 1228.54 C 1943.73 1228.7 1963.5 1232.89 1983.98 1235.34 C 2005.5 1237.92 2026.39 1237.92 2048 1236.66 L 2048 1264.93 C 2033.06 1265.2 2017.8 1265.76 2002.91 1264.35 C 1975.94 1261.79 1949.16 1256.19 1922.01 1255.86 C 1892.85 1255.5 1864.03 1262.11 1834.91 1263.35 C 1815.83 1264.16 1798.13 1261.66 1779.37 1258.7 C 1778.32 1251.02 1776.78 1243.38 1775.38 1235.76 z"/>
<path transform="translate(0,0)" fill="rgb(18,129,156)" d="M 1707.79 1118.02 L 2048 1117.98 L 2048 1156.93 C 1963.06 1160.63 1878.41 1157.52 1793.48 1158 C 1784.86 1158.05 1743.91 1155.16 1739.47 1157.25 C 1729.59 1143.64 1719.02 1130.55 1707.79 1118.02 z"/>
<path transform="translate(0,0)" fill="rgb(253,241,215)" d="M 0 967.961 L 402.283 967.06 L 522.507 967.035 C 542.933 967.031 563.833 966.025 584.197 967.222 C 587.428 967.412 588.616 967.434 591.124 969.538 C 561.028 982.536 530.332 994.285 500.469 1007.78 C 479.823 1017.11 459.814 1027.59 439.804 1038.19 C 427.688 1034.77 410.337 1036.89 397.689 1036.94 L 332.254 1037.1 L 0 1036.92 L 0 967.961 z"/>
<path transform="translate(0,0)" fill="rgb(253,241,215)" d="M 2048 967.193 L 2048 1037.95 L 1610.16 1038.52 C 1595 1029.77 1580.01 1020.84 1564.66 1012.39 C 1541.1 999.418 1517.22 987.066 1496.03 970.316 C 1498.62 968.968 1500.8 968.948 1503.65 968.863 C 1525.89 968.2 1548.28 968.637 1570.54 968.564 L 1705.74 968.335 L 2048 967.193 z"/>
<path transform="translate(0,0)" fill="rgb(253,241,215)" d="M 1693.89 132.373 C 1699.81 131.63 1706.15 131.493 1712.12 131.597 C 1744.13 132.162 1774.56 145.633 1796.5 168.953 C 1822.57 196.466 1828.75 228.216 1827.91 264.834 C 1828.42 264.461 1828.92 264.081 1829.42 263.714 C 1846.44 251.321 1867.73 246.323 1888.48 249.852 C 1906.19 252.981 1921.87 263.164 1931.94 278.069 C 1941.57 292.26 1945.25 309.661 1942.2 326.538 C 1939.46 341.702 1930.75 355.135 1918.03 363.833 C 1886.73 364.646 1855.22 363.962 1823.91 363.961 L 1644.5 363.944 L 1480.04 363.994 C 1463.43 364.019 1419.65 366.236 1406.19 362.818 C 1403.79 361.11 1402.53 359.575 1401.68 356.754 C 1398.54 346.449 1402.32 331.494 1407.3 322.318 C 1413.7 310.532 1424.87 301.189 1437.9 297.719 C 1455.08 293.142 1470.72 299.039 1485.24 307.725 C 1486.25 295.903 1487.8 285.394 1493.69 274.885 C 1502.06 259.991 1515.98 249.018 1532.42 244.366 C 1552.1 238.982 1570.57 243.85 1587.86 253.698 C 1588.52 226.653 1594.85 201.821 1611.29 179.897 C 1631.49 152.972 1660.77 136.928 1693.89 132.373 z"/>
<path transform="translate(0,0)" fill="rgb(253,241,215)" d="M 147.528 611.263 C 148.371 611.181 149.215 611.091 150.061 611.042 C 169.886 609.908 188.796 614.996 203.84 628.346 C 220.446 643.083 228.044 662.641 229.292 684.424 C 235.777 679.712 242.157 676.118 250.066 674.238 C 262.216 671.35 275.429 673.252 286.004 679.988 C 297.556 687.347 303.255 697.958 305.942 710.992 C 311.068 709.633 316.083 708.54 321.417 708.602 C 331.544 708.721 341.817 711.826 348.835 719.454 C 357.093 728.431 357.3 738.257 357.004 749.685 C 317.534 750.43 277.98 749.938 238.5 749.957 L 101.164 749.997 C 76.5311 750 51.6483 750.734 27.044 749.658 C 25.9375 747.932 24.9229 746.149 24.0044 744.316 C 19.1236 734.693 17.9422 723.209 21.4124 712.928 C 25.141 702.016 33.2399 693.146 43.7689 688.443 C 57.6068 682.2 70.381 684.571 83.9494 689.756 C 84.4411 672.007 87.2332 656.108 97.7317 641.333 C 109.732 624.445 127.308 614.564 147.528 611.263 z"/>
<path transform="translate(0,0)" fill="rgb(46,163,183)" d="M 0 1255.62 C 35.4952 1252.78 71.366 1243.17 106.974 1244.06 C 136.857 1244.81 165.174 1254.62 195.225 1253.68 C 221.553 1252.85 246.612 1245.15 272.699 1243.15 C 288.666 1241.93 304.188 1243.89 319.916 1246.36 C 284.335 1285.21 263.956 1330.27 259.114 1382.86 C 258.651 1388.89 257.998 1395 257.887 1401.04 C 257.768 1421.84 258.08 1442.45 262.976 1462.8 C 265.289 1472.59 267.474 1483.05 271.383 1492.32 C 279.183 1512.56 289.101 1531.21 301.796 1548.83 C 340.323 1601.46 398.883 1639.72 456.826 1667.85 C 736.43 1803.62 1196.66 1804.19 1487.66 1703 C 1597.27 1664.89 1716.69 1603.35 1769.54 1494.25 C 1782.18 1464.43 1787.08 1435.08 1787.89 1402.91 L 1786.65 1377.65 C 1784.33 1371.19 1784.05 1361.74 1782.67 1354.83 C 1779.92 1341.1 1776.07 1328.21 1771.27 1315.1 C 1780.16 1295.66 1780.46 1279.72 1779.37 1258.7 C 1798.13 1261.66 1815.83 1264.16 1834.91 1263.35 C 1864.03 1262.11 1892.85 1255.5 1922.01 1255.86 C 1949.16 1256.19 1975.94 1261.79 2002.91 1264.35 C 2017.8 1265.76 2033.06 1265.2 2048 1264.93 L 2048 1735.24 L 2048 1755.76 L 2048 1837.88 L 2048 1861.74 L 2048 2048 L 0 2048 L 0 1839.61 L 0 1814.05 L 0 1255.62 z"/>
<path transform="translate(0,0)" fill="rgb(18,129,156)" d="M 1769.54 1494.25 C 1795.22 1502.07 1828.17 1509.65 1841.7 1535.62 C 1847.41 1546.58 1849.21 1560.13 1845.25 1571.95 C 1835.61 1600.67 1802.56 1617.29 1777.91 1630.99 C 1764.64 1638.36 1751.4 1645.64 1737.67 1652.12 C 1646.97 1694.94 1554.23 1732.98 1457.17 1759 C 1198.38 1828.37 878.689 1828.42 620.169 1759.51 C 586.561 1750.55 553.116 1739.4 520.378 1727.64 C 505.082 1722.15 490.109 1715.85 475.006 1709.86 C 420.464 1688.24 331.011 1652.99 304.876 1597.56 C 296.866 1580.57 297.557 1566.84 301.796 1548.83 C 340.323 1601.46 398.883 1639.72 456.826 1667.85 C 736.43 1803.62 1196.66 1804.19 1487.66 1703 C 1597.27 1664.89 1716.69 1603.35 1769.54 1494.25 z"/>
<path transform="translate(0,0)" fill="rgb(101,194,203)" d="M 2048 1861.74 C 1973.51 1835.85 1938.2 1872.75 1867.95 1870.76 C 1832.53 1869.76 1800.83 1856.5 1766.49 1850.48 C 1746.01 1846.9 1724.19 1847.28 1703.71 1850.65 C 1679.5 1854.64 1656.85 1865.3 1634.57 1875.08 C 1602.38 1889.22 1569.49 1899.87 1533.99 1900.75 C 1502.86 1901.52 1465.94 1896.65 1436.5 1885.85 C 1432.59 1884.41 1427.21 1882.98 1424.15 1880.08 L 1425.18 1878.78 C 1440.67 1874.61 1468 1878.67 1484.82 1879.06 C 1505.96 1879.56 1527.42 1879.19 1548.39 1876.21 C 1565.53 1873.94 1582.32 1869.5 1598.34 1862.99 C 1634.12 1848.47 1658.75 1830.46 1698.42 1822.52 C 1712.58 1819.66 1726.99 1818.2 1741.43 1818.17 C 1790.6 1818.09 1830.33 1837.57 1875.18 1838.88 C 1894.03 1839.44 1912.44 1835.85 1930.94 1832.8 C 1974.68 1825.59 2004.93 1826.71 2048 1837.88 L 2048 1861.74 z"/>
<path transform="translate(0,0)" fill="rgb(101,194,203)" d="M 0 1814.05 C 34.0667 1813.57 67.7328 1805.65 101.786 1812.03 C 129.103 1817.14 153.348 1830.53 181.295 1833.35 C 215.116 1836.75 249.581 1826.3 283.763 1826.87 C 321.872 1827.5 359.082 1845.44 395.028 1856.69 C 412.086 1862.04 429.683 1865.8 446.646 1871.22 C 443.818 1872.92 440.902 1874.77 437.673 1875.59 C 417.804 1880.58 380.552 1872.49 359.861 1867.34 C 338.434 1862.01 316.167 1854.1 293.964 1853.5 C 255.494 1852.47 219.138 1868.57 180 1865.44 C 158.859 1863.74 140.289 1857.33 120.66 1849.8 C 88.4014 1837.41 68.2636 1831.51 33.1902 1834.57 C 22.0107 1835.54 10.9084 1836.91 0 1839.61 L 0 1814.05 z"/>
<path transform="translate(0,0)" fill="rgb(101,194,203)" d="M 1786.65 1377.65 L 1788.02 1376.12 C 1804.9 1378.97 1822.9 1387.09 1839.35 1392.28 C 1854.88 1397.19 1870.78 1401.02 1886.23 1406.16 C 1925.82 1419.31 1964.5 1442.36 1988.95 1476.86 C 2001.35 1494.36 2009.03 1515.22 2005.13 1536.75 C 2002.26 1552.64 1994.97 1565.79 1981.46 1575.06 C 1974.84 1579.59 1961.34 1587.07 1953.35 1585.89 L 1952.51 1584.65 C 1954.59 1575.59 1963.66 1567.6 1969.22 1560.28 C 1983.31 1541.73 1984.82 1519.44 1972.35 1499.43 C 1944.69 1455.04 1853.51 1417.27 1803.5 1406.09 C 1798.32 1404.92 1793.12 1403.86 1787.89 1402.91 L 1786.65 1377.65 z"/>
<path transform="translate(0,0)" fill="rgb(101,194,203)" d="M 77.4219 1490.19 C 72.7202 1489.3 67.4051 1488.39 63.4435 1485.55 C 60.6549 1483.55 58.9975 1480.82 58.592 1477.4 C 57.6177 1469.19 63.1261 1459.72 67.9019 1453.42 C 111.062 1396.43 194.056 1391.97 259.114 1382.86 C 258.651 1388.89 257.998 1395 257.887 1401.04 C 246.639 1403.68 235.084 1405 223.795 1407.56 C 184.158 1416.54 137.197 1431.69 106.249 1458.67 C 95.4601 1468.08 87.2822 1479.88 77.4219 1490.19 z"/>
<path transform="translate(0,0)" fill="rgb(101,194,203)" d="M 281.65 1621.86 C 259.694 1618.84 238.739 1610.76 220.433 1598.26 C 204.65 1587.69 191.353 1573.86 187.852 1554.49 C 185.272 1540.22 188.454 1527.88 196.555 1516.07 C 209.362 1497.41 239.795 1467.28 262.976 1462.8 C 265.289 1472.59 267.474 1483.05 271.383 1492.32 C 261.838 1494.59 252.483 1500.87 244.912 1506.93 C 232.973 1516.5 220.642 1530.01 219.229 1545.92 C 215.978 1582.54 263.122 1599.18 280.701 1620.69 L 281.65 1621.86 z"/>
<path transform="translate(0,0)" fill="rgb(101,194,203)" d="M 2048 1755.76 C 2003.66 1743.92 1956.42 1745.68 1911.75 1755.57 C 1896.05 1759.04 1875.17 1767.4 1859.16 1764.98 C 1858.51 1764.05 1857.75 1763.6 1858.09 1762.4 C 1860.21 1754.75 1889.28 1741.17 1897.69 1737.23 C 1946.09 1714.54 1998.75 1717.44 2048 1735.24 L 2048 1755.76 z"/>
<path transform="translate(0,0)" fill="rgb(101,194,203)" d="M 1423.65 1954.42 C 1463.38 1948.07 1532.58 1974.72 1577.8 1978.43 C 1601.81 1980.4 1626.38 1979.12 1650.18 1975.52 C 1672.62 1972.13 1695.06 1965.21 1717.95 1967.45 C 1726.55 1968.29 1741.61 1969.32 1747.38 1976.3 C 1747.8 1978.58 1748.16 1978.22 1746.79 1980.35 C 1739.19 1981.85 1731.23 1981.12 1723.51 1981.27 C 1713.68 1981.52 1703.88 1982.48 1694.19 1984.14 C 1681.26 1986.4 1668.46 1992.22 1655.72 1995.78 C 1618.79 2006.39 1579.92 2008.43 1542.07 2001.76 C 1508.21 1996.62 1475.56 1982.87 1441.08 1981.9 C 1412.84 1981.11 1385.91 1986.95 1358.21 1991.16 C 1328.04 1995.75 1297.98 1998.25 1267.47 1996.32 C 1248.98 1995.15 1231.66 1992.81 1215.6 1983.1 C 1242.54 1977.76 1270.67 1977.99 1297.93 1974.13 C 1340 1968.17 1381.24 1958.17 1423.65 1954.42 z"/>
<path transform="translate(0,0)" fill="rgb(101,194,203)" d="M 541.126 1917.46 C 579.672 1916.03 620.434 1924.37 657.071 1936.16 C 672.622 1941.17 687.61 1947.82 703.142 1952.86 C 724.514 1959.8 746.788 1963.98 769.078 1966.58 C 804.739 1970.73 840.259 1968.4 875.63 1962.63 C 899.674 1958.72 924.079 1953.53 948.48 1952.73 C 974.08 1951.89 1000.02 1955.98 1024.9 1961.76 C 1040.41 1965.36 1056.85 1969.01 1071.14 1976.13 C 1052.56 1980.01 1033.59 1976.42 1014.94 1974.69 C 986.461 1971.67 955.755 1973.08 927.702 1978.61 C 892.125 1985.63 858.771 1996.47 821.99 1996.94 C 754.089 1997.81 693.316 1967.63 629.773 1948.7 C 608.277 1942.25 586.259 1937.69 563.97 1935.07 C 546.127 1932.91 505.844 1932.41 491.458 1923.55 L 491.275 1922.32 C 499.66 1916.22 530.405 1917.73 541.126 1917.46 z"/>
<path transform="translate(0,0)" fill="rgb(101,194,203)" d="M 535.942 1796.24 C 571.392 1793.92 629.212 1817.82 663.991 1828.37 C 679.508 1833.07 695.996 1836.48 711.953 1839.37 C 757.027 1847.54 803.882 1845.87 849.498 1847.13 C 870.771 1847.8 892.004 1849.38 913.142 1851.86 C 922.608 1852.95 950.134 1853.85 956.032 1861.3 L 955.194 1863.25 C 948.013 1867.54 940.361 1867.87 932.229 1868.81 C 904.733 1870.94 877.074 1871.75 849.537 1873.36 C 821.749 1874.98 794.127 1877.91 766.258 1876.28 C 703.934 1872.64 647.175 1847.3 587.919 1830.38 C 570.127 1825.3 550.988 1824.18 533.738 1817.27 C 526.903 1814.53 522.347 1811.32 517.439 1805.79 C 523.502 1800.69 527.892 1797.66 535.942 1796.24 z"/>
<path transform="translate(0,0)" fill="rgb(101,194,203)" d="M 80.2075 1641.94 C 85.5685 1642 88.4427 1643.63 92.886 1646.41 C 110.211 1657.27 126.443 1669.88 143.719 1680.83 C 167 1695.58 192.537 1706.64 218.723 1715.09 C 258.492 1727.92 299.782 1733.4 340.334 1742.74 C 354.301 1745.95 368.125 1750.9 381.875 1755 C 390.855 1757.67 401.038 1758.57 409.378 1762.96 C 412.395 1764.55 414.158 1766.17 415.238 1769.5 C 415.09 1772.28 414.408 1773.3 412.743 1775.48 C 395.293 1776.06 377.16 1773.22 359.82 1771.23 C 285.08 1762.67 171.634 1741.06 112.612 1692.63 C 100.941 1683.05 79.073 1660.89 78.407 1644.92 C 78.3345 1643.19 79.0725 1643.07 80.2075 1641.94 z"/>
<path transform="translate(0,0)" fill="rgb(101,194,203)" d="M 1838.4 1670.76 C 1839.47 1670.63 1838.71 1670.67 1840.65 1671.12 L 1840.67 1673.35 C 1838.66 1677.31 1836.18 1680.73 1832.77 1683.61 C 1765.14 1740.71 1646.75 1779.33 1559.93 1791.14 C 1522.95 1796.17 1482.51 1797.04 1445.33 1793.72 C 1443.29 1793.34 1441.97 1792.95 1440.2 1791.84 L 1440.21 1790.09 C 1449.08 1779.32 1506.97 1776.53 1521.49 1774.61 C 1536.47 1772.54 1551.4 1770.09 1566.25 1767.26 C 1607.89 1759.08 1648.59 1746.41 1688.85 1733.17 C 1717.33 1723.8 1746.11 1714.26 1773.63 1702.32 C 1795.68 1692.75 1816.72 1681.1 1838.4 1670.76 z"/>
<path transform="translate(0,0)" fill="rgb(101,194,203)" d="M 1349.67 1837.58 C 1356.25 1836.99 1365.86 1835.04 1371.9 1838.36 L 1371.8 1839.95 C 1371.01 1840.71 1370.85 1840.92 1370.02 1841.53 C 1361.31 1847.96 1345.3 1851.61 1334.87 1854.93 C 1259.77 1878.85 1176.87 1888.64 1098.48 1879.46 C 1089.84 1877.74 1080.32 1876.35 1072.36 1872.48 L 1072.38 1871.39 C 1079.25 1866 1128.01 1864.89 1140.36 1863.68 C 1210.29 1856.8 1279.74 1844.82 1349.67 1837.58 z"/>
<path transform="translate(0,0)" fill="rgb(101,194,203)" d="M 111.573 1957.43 C 136.388 1955.52 177.252 1970.33 203.335 1975.35 C 213.829 1977.37 238.007 1977.99 246.014 1982.11 L 246.002 1983.38 C 241.047 1987.52 230.014 1986.9 223.82 1987.24 C 190.701 1990.15 155.835 1987.17 123.209 1981.19 C 113.654 1979.44 92.9186 1976.34 87.1065 1967.93 C 87.3647 1965.88 87.1339 1965.74 88.5728 1964.03 C 93.9246 1957.67 103.996 1958.03 111.573 1957.43 z"/>
<path transform="translate(0,0)" fill="rgb(101,194,203)" d="M 312.105 1683.47 C 327.509 1686.85 339.91 1699.11 354.252 1705.44 C 375.527 1714.83 398.956 1721.25 420.891 1729.22 C 429.535 1732.37 462.723 1740.12 466.301 1745.32 L 464.664 1747.08 C 442.199 1751.47 407.585 1740.84 386.794 1732.42 C 371.356 1726.17 315.618 1701.45 310.906 1687.86 C 310.287 1686.08 311.347 1685.07 312.105 1683.47 z"/>
<path transform="translate(0,0)" fill="rgb(101,194,203)" d="M 69.9498 1320.39 C 101.153 1317.58 140.138 1325.91 171.047 1332.19 C 159.332 1333.53 147.675 1335.45 136.028 1337.28 C 104.67 1343.08 70.6902 1346.39 42.5469 1327.9 C 51.7217 1323.9 60.0124 1321.62 69.9498 1320.39 z"/>
<path transform="translate(0,0)" fill="rgb(101,194,203)" d="M 1916.79 1341.43 C 1919.62 1341.06 1922.59 1341.06 1925.45 1340.96 C 1949.53 1340.15 1977.81 1339.73 1996.57 1357.2 C 1993.75 1359.96 1990.64 1362.18 1987.46 1364.49 L 1966.02 1360.28 C 1937.46 1355.18 1908.43 1357.34 1881.15 1346.47 C 1892.88 1343.62 1904.81 1342.57 1916.79 1341.43 z"/>
<path transform="translate(0,0)" fill="rgb(253,241,215)" d="M 1279.56 675.841 C 1288.63 675.727 1296.56 676.918 1305.32 679.238 L 1314.69 681.587 C 1344.88 688.087 1395.3 697.032 1420.71 712.118 C 1426.08 715.303 1430.23 719.287 1434.2 724.063 C 1439.62 758.801 1440.09 795.688 1437.59 830.731 C 1432.56 901.25 1418.2 944.202 1483.62 992.222 C 1516 1015.98 1553.96 1032.95 1588.38 1053.82 C 1656.33 1095.03 1739.1 1167.81 1751.97 1249.99 C 1753.88 1262.16 1757.34 1286.78 1749.81 1297.49 C 1748.2 1299.78 1745.95 1301.3 1743.16 1301.78 C 1730.94 1303.89 1713.78 1288.53 1704.61 1281.41 C 1671.71 1255.86 1640.76 1240.86 1603.31 1223.52 C 1582.51 1213.65 1561.48 1204.28 1540.23 1195.42 C 1500.16 1179.13 1460.4 1164.04 1423.68 1140.72 C 1390.98 1119.95 1362.25 1090.93 1334.61 1064.06 C 1335.74 1084.32 1340.01 1105.73 1352.32 1122.32 C 1358.48 1130.63 1365.46 1138.34 1370.94 1147.14 C 1398.82 1191.87 1410.63 1248.27 1403.42 1300.4 C 1402.07 1310.19 1397.53 1336.46 1391.12 1343.41 C 1375.73 1360.09 1257.77 1394.39 1232.3 1399.71 C 1230.87 1400.21 1229.46 1400.66 1228 1401.06 C 1196.32 1409.71 1162.93 1414.89 1130.4 1419.2 C 1046.27 1430.35 959.232 1433.4 874.797 1423.99 C 842.596 1420.08 810.581 1414.77 778.844 1408.07 C 738.165 1399.81 698.057 1390 659.463 1374.42 C 639.848 1366.51 620.964 1356.34 602.574 1345.94 C 601.986 1345.66 601.393 1345.39 600.81 1345.1 C 592.797 1341.13 581.65 1332.92 578.826 1324.17 C 574.183 1309.78 575.522 1292.16 576.737 1277.35 C 584.226 1186.13 623.544 1096.44 660.349 1013.8 C 669.4 993.476 677.714 972.32 688.372 952.787 C 693.76 955.886 697.603 957.987 703.904 957.73 C 697.427 945.748 689.009 934.679 682.369 922.694 C 661.657 885.309 653.056 843.373 654.776 800.8 L 655.444 784.681 C 685.882 811.797 714.579 813.044 753.671 816.245 C 755.993 822.876 758.729 826.03 764.183 830.353 C 772.426 833.932 780.523 836.365 789.261 838.423 C 808.226 862.813 825.686 881.737 852.653 897.533 C 869.615 905.216 885.839 910.339 904.532 911.575 C 942.744 914.101 974.404 898.834 1002.59 874.046 C 1014.87 862.356 1022.9 850.167 1031.04 835.44 L 1036.89 822.991 C 1059.3 834.041 1087.59 838.3 1112.37 840.305 C 1153.01 843.593 1195.43 837.798 1227.26 810.316 C 1266.8 776.18 1276.08 725.351 1279.56 675.841 z"/>
<path transform="translate(0,0)" fill="rgb(5,45,55)" d="M 1314.69 681.587 C 1344.88 688.087 1395.3 697.032 1420.71 712.118 C 1426.08 715.303 1430.23 719.287 1434.2 724.063 C 1439.62 758.801 1440.09 795.688 1437.59 830.731 C 1432.56 901.25 1418.2 944.202 1483.62 992.222 C 1516 1015.98 1553.96 1032.95 1588.38 1053.82 C 1656.33 1095.03 1739.1 1167.81 1751.97 1249.99 C 1753.88 1262.16 1757.34 1286.78 1749.81 1297.49 C 1748.2 1299.78 1745.95 1301.3 1743.16 1301.78 C 1730.94 1303.89 1713.78 1288.53 1704.61 1281.41 C 1671.71 1255.86 1640.76 1240.86 1603.31 1223.52 C 1582.51 1213.65 1561.48 1204.28 1540.23 1195.42 C 1500.16 1179.13 1460.4 1164.04 1423.68 1140.72 C 1390.98 1119.95 1362.25 1090.93 1334.61 1064.06 C 1335.74 1084.32 1340.01 1105.73 1352.32 1122.32 C 1358.48 1130.63 1365.46 1138.34 1370.94 1147.14 C 1398.82 1191.87 1410.63 1248.27 1403.42 1300.4 C 1402.07 1310.19 1397.53 1336.46 1391.12 1343.41 C 1375.73 1360.09 1257.77 1394.39 1232.3 1399.71 C 1236.12 1392.09 1239.46 1384.18 1242.98 1376.42 C 1247.55 1364.52 1251.86 1352.53 1255.89 1340.44 C 1285.3 1250.39 1269.8 1148.38 1234.23 1062.26 C 1225.01 1039.93 1213.57 1019.29 1202.66 997.817 C 1211.65 988.401 1224.22 981.125 1234.81 973.516 C 1263.98 952.548 1288.66 927.169 1305.26 895.07 C 1338.18 831.424 1335.91 748.674 1314.69 681.587 z"/>
<path transform="translate(0,0)" fill="rgb(200,216,206)" d="M 596.946 1308.1 C 597.397 1308.19 597.85 1308.26 598.298 1308.36 C 604.432 1309.72 631.672 1332.5 639.625 1337.75 C 669.716 1358.01 702.368 1374.18 736.722 1385.84 C 855.45 1425.65 1018.44 1434.21 1140.92 1408.37 C 1161.57 1404.01 1182.4 1398.76 1202.37 1391.9 C 1215.37 1387.43 1229.43 1378.04 1242.98 1376.42 C 1239.46 1384.18 1236.12 1392.09 1232.3 1399.71 C 1230.87 1400.21 1229.46 1400.66 1228 1401.06 C 1196.32 1409.71 1162.93 1414.89 1130.4 1419.2 C 1046.27 1430.35 959.232 1433.4 874.797 1423.99 C 842.596 1420.08 810.581 1414.77 778.844 1408.07 C 738.165 1399.81 698.057 1390 659.463 1374.42 C 639.848 1366.51 620.964 1356.34 602.574 1345.94 C 599.872 1333.28 597.514 1321.08 596.946 1308.1 z"/>
<path transform="translate(0,0)" fill="rgb(200,216,206)" d="M 1279.56 675.841 C 1288.63 675.727 1296.56 676.918 1305.32 679.238 C 1302.63 692.907 1301.28 706.782 1298.39 720.428 C 1289.46 762.699 1271.06 808.206 1234 833.09 C 1193.39 860.355 1128.44 862.401 1081.99 853.017 C 1065.55 849.694 1045.34 844.459 1031.04 835.44 L 1036.89 822.991 C 1059.3 834.041 1087.59 838.3 1112.37 840.305 C 1153.01 843.593 1195.43 837.798 1227.26 810.316 C 1266.8 776.18 1276.08 725.351 1279.56 675.841 z"/>
<path transform="translate(0,0)" fill="rgb(5,45,55)" d="M 688.372 952.787 C 693.76 955.886 697.603 957.987 703.904 957.73 C 705.825 960.69 706.411 962.915 705.796 966.457 C 704.831 972.017 677.773 1016.98 672.635 1027.08 C 636.494 1098.11 587.676 1227.18 596.946 1308.1 C 597.514 1321.08 599.872 1333.28 602.574 1345.94 C 601.986 1345.66 601.393 1345.39 600.81 1345.1 C 592.797 1341.13 581.65 1332.92 578.826 1324.17 C 574.183 1309.78 575.522 1292.16 576.737 1277.35 C 584.226 1186.13 623.544 1096.44 660.349 1013.8 C 669.4 993.476 677.714 972.32 688.372 952.787 z"/>
<path transform="translate(0,0)" fill="rgb(200,216,206)" d="M 852.653 897.533 C 869.615 905.216 885.839 910.339 904.532 911.575 C 942.744 914.101 974.404 898.834 1002.59 874.046 C 1002.95 880.334 999.574 883.615 995.584 888.113 C 976.655 909.45 944.042 924.256 915.732 925.895 C 897.26 926.965 876.969 922.761 862.819 910.154 C 858.854 906.621 854.618 902.53 852.653 897.533 z"/>
<path transform="translate(0,0)" fill="rgb(200,216,206)" d="M 655.444 784.681 C 685.882 811.797 714.579 813.044 753.671 816.245 C 755.993 822.876 758.729 826.03 764.183 830.353 C 754.379 831.955 743.762 831.299 733.914 830.417 C 707.981 828.097 672.628 822.095 654.776 800.8 L 655.444 784.681 z"/>
<path transform="translate(0,0)" fill="rgb(240,94,43)" d="M 282.791 1403.03 C 282.686 1401.92 282.682 1402.09 282.661 1400.96 C 281.75 1350.51 303.982 1298.55 338.697 1262.51 C 404.135 1194.56 484.353 1177.34 574.95 1175.74 C 561.563 1212.65 546.956 1272.69 554.169 1311.19 C 548.63 1305.02 542.873 1297.94 535.573 1293.83 C 538.888 1320.76 550.468 1334.66 571.435 1351.1 C 572.599 1352.02 573.775 1352.92 574.965 1353.8 C 595.198 1367.5 616.158 1380.48 638.273 1390.95 C 687.365 1414.18 745.285 1428.88 798.744 1437.29 C 890.977 1454.37 998.481 1460.36 1091.99 1448.82 C 1123.84 1512.39 1141.25 1580.57 1135.24 1652.1 C 1132.64 1688.88 1125.22 1714.06 1109.2 1746.88 C 1072.26 1748.37 1035.33 1750.17 998.354 1750.01 C 938.944 1749.41 879.61 1745.59 820.613 1738.56 C 797.761 1735.85 773.59 1734.16 751.227 1728.63 C 733.112 1726.78 715.007 1722.64 697.158 1719.11 C 609.062 1701.68 518.77 1674.55 439.944 1630.75 C 428.053 1624.14 415.294 1617.22 404.746 1608.6 C 377.312 1594.19 346.515 1564.92 327.045 1540.89 C 296.802 1503.57 277.639 1451.42 282.791 1403.03 z"/>
<path transform="translate(0,0)" fill="rgb(253,241,215)" d="M 798.744 1437.29 C 890.977 1454.37 998.481 1460.36 1091.99 1448.82 C 1123.84 1512.39 1141.25 1580.57 1135.24 1652.1 C 1132.64 1688.88 1125.22 1714.06 1109.2 1746.88 C 1072.26 1748.37 1035.33 1750.17 998.354 1750.01 C 938.944 1749.41 879.61 1745.59 820.613 1738.56 C 797.761 1735.85 773.59 1734.16 751.227 1728.63 C 729.401 1699.6 721.121 1668.25 717.135 1632.71 L 716.987 1632.26 C 716.042 1590.61 721.8 1552.26 739.175 1514.01 C 750.663 1488.72 765.503 1466.82 785.495 1447.58 C 789.292 1443.93 793.742 1439.17 798.744 1437.29 z"/>
<path transform="translate(0,0)" fill="rgb(200,216,206)" d="M 717.135 1632.71 C 733.689 1634.4 750.244 1637.9 766.71 1640.39 C 788.948 1643.64 811.261 1646.35 833.63 1648.51 C 933.877 1658.34 1034.78 1659.54 1135.24 1652.1 C 1132.64 1688.88 1125.22 1714.06 1109.2 1746.88 C 1072.26 1748.37 1035.33 1750.17 998.354 1750.01 C 938.944 1749.41 879.61 1745.59 820.613 1738.56 C 797.761 1735.85 773.59 1734.16 751.227 1728.63 C 729.401 1699.6 721.121 1668.25 717.135 1632.71 z"/>
<path transform="translate(0,0)" fill="rgb(253,241,215)" d="M 282.791 1403.03 C 282.686 1401.92 282.682 1402.09 282.661 1400.96 C 281.75 1350.51 303.982 1298.55 338.697 1262.51 C 404.135 1194.56 484.353 1177.34 574.95 1175.74 C 561.563 1212.65 546.956 1272.69 554.169 1311.19 C 548.63 1305.02 542.873 1297.94 535.573 1293.83 C 538.888 1320.76 550.468 1334.66 571.435 1351.1 C 572.599 1352.02 573.775 1352.92 574.965 1353.8 C 520.481 1355.34 477.583 1373.63 439.634 1413.46 C 411.563 1442.92 395.401 1478.09 388.101 1517.82 L 388.21 1518.57 C 384.332 1550.75 389.893 1579.87 404.746 1608.6 C 377.312 1594.19 346.515 1564.92 327.045 1540.89 C 296.802 1503.57 277.639 1451.42 282.791 1403.03 z"/>
<path transform="translate(0,0)" fill="url(#Gradient1)" d="M 282.791 1403.03 C 282.686 1401.92 282.682 1402.09 282.661 1400.96 C 281.75 1350.51 303.982 1298.55 338.697 1262.51 C 404.135 1194.56 484.353 1177.34 574.95 1175.74 C 561.563 1212.65 546.956 1272.69 554.169 1311.19 C 548.63 1305.02 542.873 1297.94 535.573 1293.83 C 506.29 1270.22 483.261 1268.59 446.398 1272.61 C 397.17 1277.98 345.243 1302.09 314.021 1341.37 C 303.941 1354.27 295.722 1368.52 289.604 1383.7 C 286.791 1390.02 284.756 1396.4 282.791 1403.03 z"/>
<path transform="translate(0,0)" fill="rgb(200,216,206)" d="M 282.791 1403.03 C 284.756 1396.4 286.791 1390.02 289.604 1383.7 C 305.03 1431.13 317.627 1459.09 356.131 1493.72 C 365.145 1501.82 375.821 1511.31 386.555 1517.07 C 387.06 1517.34 387.586 1517.57 388.101 1517.82 L 388.21 1518.57 C 384.332 1550.75 389.893 1579.87 404.746 1608.6 C 377.312 1594.19 346.515 1564.92 327.045 1540.89 C 296.802 1503.57 277.639 1451.42 282.791 1403.03 z"/>
<path transform="translate(0,0)" fill="rgb(212,71,32)" d="M 388.21 1518.57 C 388.828 1518.82 389.45 1519.06 390.063 1519.32 C 398.822 1523.08 406.063 1530.45 414.338 1535.19 C 436.829 1548 459.991 1559.59 483.723 1569.91 C 540.83 1594.17 595.886 1609.08 656.51 1621.56 C 676.41 1625.66 697.387 1627.29 716.987 1632.26 L 717.135 1632.71 C 721.121 1668.25 729.401 1699.6 751.227 1728.63 C 733.112 1726.78 715.007 1722.64 697.158 1719.11 C 609.062 1701.68 518.77 1674.55 439.944 1630.75 C 428.053 1624.14 415.294 1617.22 404.746 1608.6 C 389.893 1579.87 384.332 1550.75 388.21 1518.57 z"/>
<path transform="translate(0,0)" fill="rgb(240,94,43)" d="M 1478.6 1209.81 C 1530.77 1226.47 1582.81 1242.37 1632.56 1265.6 C 1645.39 1271.59 1657.63 1279.22 1669.06 1287.54 C 1692.55 1304.61 1717.91 1330.07 1748.86 1330.19 C 1768.14 1380.69 1767.62 1436.34 1745.24 1485.82 C 1734.41 1509.77 1710.43 1545.09 1689.3 1560.99 C 1644.2 1609.66 1558.05 1650.44 1496.53 1673.25 C 1483.92 1677.92 1470.63 1683.54 1457.53 1686.59 C 1433.61 1695.86 1407.61 1702.08 1382.72 1708.15 C 1292.94 1730.02 1201.3 1741.13 1109.2 1746.88 C 1125.22 1714.06 1132.64 1688.88 1135.24 1652.1 C 1141.25 1580.57 1123.84 1512.39 1091.99 1448.82 C 1180.82 1440.98 1268.42 1422.8 1353.02 1394.63 C 1403.85 1375.29 1441.42 1359.2 1482.92 1322.81 C 1493.74 1311.59 1503.09 1301.53 1509.85 1287.38 C 1501.82 1288.78 1493.11 1294.96 1485.77 1298.61 C 1486.23 1269.39 1486.09 1238.25 1478.6 1209.81 z"/>
<path transform="translate(0,0)" fill="rgb(253,241,215)" d="M 1478.6 1209.81 C 1530.77 1226.47 1582.81 1242.37 1632.56 1265.6 C 1645.39 1271.59 1657.63 1279.22 1669.06 1287.54 C 1692.55 1304.61 1717.91 1330.07 1748.86 1330.19 C 1768.14 1380.69 1767.62 1436.34 1745.24 1485.82 C 1734.41 1509.77 1710.43 1545.09 1689.3 1560.99 C 1644.2 1609.66 1558.05 1650.44 1496.53 1673.25 C 1483.92 1677.92 1470.63 1683.54 1457.53 1686.59 C 1482.89 1657.86 1494.15 1624.11 1493.97 1585.92 L 1494.12 1585.28 C 1493.95 1565.71 1489.62 1545.13 1483.39 1526.63 C 1467.82 1479.29 1435.64 1439.2 1392.8 1413.75 C 1379.96 1406.26 1366.28 1401.17 1353.02 1394.63 C 1403.85 1375.29 1441.42 1359.2 1482.92 1322.81 C 1493.74 1311.59 1503.09 1301.53 1509.85 1287.38 C 1501.82 1288.78 1493.11 1294.96 1485.77 1298.61 C 1486.23 1269.39 1486.09 1238.25 1478.6 1209.81 z"/>
<path transform="translate(0,0)" fill="rgb(212,71,32)" d="M 1478.6 1209.81 C 1530.77 1226.47 1582.81 1242.37 1632.56 1265.6 C 1645.39 1271.59 1657.63 1279.22 1669.06 1287.54 C 1692.55 1304.61 1717.91 1330.07 1748.86 1330.19 C 1768.14 1380.69 1767.62 1436.34 1745.24 1485.82 C 1734.41 1509.77 1710.43 1545.09 1689.3 1560.99 C 1697.88 1530.44 1701.18 1501.58 1694.71 1470.11 L 1694.17 1469.89 C 1688.86 1437.53 1667.95 1404.26 1644.27 1382.13 C 1601.14 1341.84 1541.65 1320.97 1482.92 1322.81 C 1493.74 1311.59 1503.09 1301.53 1509.85 1287.38 C 1501.82 1288.78 1493.11 1294.96 1485.77 1298.61 C 1486.23 1269.39 1486.09 1238.25 1478.6 1209.81 z"/>
<path transform="translate(0,0)" fill="rgb(240,94,43)" d="M 1509.85 1287.38 C 1522.29 1274.77 1548.9 1270.97 1565.86 1270.92 C 1576.51 1270.89 1587.16 1272.13 1597.39 1275.18 C 1631.89 1285.47 1677.27 1315.54 1702.5 1340.92 C 1717.33 1355.84 1725.79 1373.72 1725.67 1394.99 C 1725.53 1418.22 1710.83 1453.54 1694.71 1470.11 L 1694.17 1469.89 C 1688.86 1437.53 1667.95 1404.26 1644.27 1382.13 C 1601.14 1341.84 1541.65 1320.97 1482.92 1322.81 C 1493.74 1311.59 1503.09 1301.53 1509.85 1287.38 z"/>
<path transform="translate(0,0)" fill="rgb(200,216,206)" d="M 1694.17 1469.89 L 1694.71 1470.11 C 1701.18 1501.58 1697.88 1530.44 1689.3 1560.99 C 1644.2 1609.66 1558.05 1650.44 1496.53 1673.25 C 1483.92 1677.92 1470.63 1683.54 1457.53 1686.59 C 1482.89 1657.86 1494.15 1624.11 1493.97 1585.92 L 1494.12 1585.28 C 1504.34 1584.86 1518.41 1578.08 1528.15 1574.45 C 1575.8 1556.71 1624.14 1531.79 1663.29 1499.01 C 1674.1 1489.96 1683.98 1479.65 1694.17 1469.89 z"/>
<path transform="translate(0,0)" fill="rgb(212,71,32)" d="M 1493.97 1585.92 C 1494.15 1624.11 1482.89 1657.86 1457.53 1686.59 C 1433.61 1695.86 1407.61 1702.08 1382.72 1708.15 C 1292.94 1730.02 1201.3 1741.13 1109.2 1746.88 C 1125.22 1714.06 1132.64 1688.88 1135.24 1652.1 C 1168.23 1652.02 1201.74 1647.98 1234.45 1643.79 C 1283.57 1637.5 1332.75 1629.95 1380.94 1618.38 C 1419.24 1609.19 1456.33 1597.31 1493.97 1585.92 z"/>
<path transform="translate(0,0)" fill="rgb(5,45,55)" d="M 713.789 565.641 C 739.81 520.682 772.45 480.88 815.028 450.63 C 902.856 388.232 1022.24 368.547 1127.23 386.436 C 1139.37 386.946 1152.73 391.702 1164.4 394.975 C 1228.88 413.058 1289.68 447.865 1335.22 497.358 C 1377.69 543.958 1408.12 600.246 1423.84 661.309 C 1397.26 651.871 1370.69 641.994 1343.77 633.558 C 1331.31 629.655 1318.27 627.259 1305.96 623.097 C 1297.6 611.713 1292.4 605.007 1277.97 601.875 C 1258.28 599.077 1238.7 593.176 1218.88 590.069 C 1144.09 578.345 1056.88 575.872 984.04 598.457 C 972.216 600.697 944.927 600.206 931.454 599.942 C 898.92 600.921 868.578 585.333 837.186 578.368 C 801.788 570.514 766.172 567.222 729.981 565.856 C 732.329 562.934 734.785 560.09 737.194 557.217 L 735.593 555.365 C 732.57 558.714 729.921 562.242 727.257 565.873 C 722.779 565.923 718.269 565.723 713.789 565.641 z"/>
<path transform="translate(0,0)" fill="rgb(253,241,215)" d="M 984.04 598.457 C 983.759 595.823 983.961 596.253 985.536 594.269 C 1015.41 556.653 1065.16 529.675 1112.8 524.82 C 1159.59 520.084 1206.33 534.269 1242.6 564.212 C 1255.98 575.313 1267.29 588.228 1277.97 601.875 C 1258.28 599.077 1238.7 593.176 1218.88 590.069 C 1144.09 578.345 1056.88 575.872 984.04 598.457 z"/>
<path transform="translate(0,0)" fill="rgb(253,241,215)" d="M 737.194 557.217 C 758.892 535.961 788.309 525.008 818.62 525.172 C 850.624 525.455 881.166 538.613 903.355 561.678 C 914.508 573.087 923.072 586.448 931.454 599.942 C 898.92 600.921 868.578 585.333 837.186 578.368 C 801.788 570.514 766.172 567.222 729.981 565.856 C 732.329 562.934 734.785 560.09 737.194 557.217 z"/>
<path transform="translate(0,0)" fill="rgb(46,79,86)" d="M 713.789 565.641 C 739.81 520.682 772.45 480.88 815.028 450.63 C 902.856 388.232 1022.24 368.547 1127.23 386.436 C 1126.93 386.476 1126.62 386.52 1126.31 386.556 C 1116.94 387.628 1107.12 386.363 1097.68 386.464 C 1078.33 386.672 1058.49 388.061 1039.28 390.366 C 945.822 401.575 868.863 432.218 796.553 492.758 C 778.312 508.03 759.333 524.986 744.374 543.517 C 741.282 547.348 738.91 551.75 735.593 555.365 C 732.57 558.714 729.921 562.242 727.257 565.873 C 722.779 565.923 718.269 565.723 713.789 565.641 z"/>
<path transform="translate(0,0)" fill="rgb(5,45,55)" d="M 693.631 586.468 C 740.279 584.302 797.196 590.87 842.143 603.529 C 862.206 609.179 883.094 620.11 903.825 621.697 C 921.795 623.073 964.58 624.814 981.529 621.483 C 997.618 618.321 1012.64 611.705 1029.07 609.402 C 1090.66 600.29 1153.32 601.427 1214.53 612.767 C 1231.84 615.847 1258.48 618.936 1274.01 627.027 C 1276.04 632.563 1277.55 638.441 1278.08 644.333 C 1278.37 647.551 1277.67 650.643 1275.39 653.061 C 1270.94 657.798 1264.14 656.758 1258.21 656.773 C 1254.63 690.417 1253.58 719.773 1240.17 751.966 C 1228.89 779.03 1211.92 799.307 1184.3 810.509 C 1146.53 825.822 1081.2 817.799 1044.91 802.395 C 987.625 778.077 985.604 715.019 965.326 664.587 C 961.019 655.913 955.16 647.476 946.505 642.689 C 936.577 637.198 922.576 637.674 911.881 640.9 C 879.592 650.641 878.303 696.123 864.149 721.544 C 856.64 725.906 849.66 728.128 841.203 729.818 C 847.123 713.618 853.802 697.285 857.262 680.335 C 859.891 667.453 863.477 644.741 855.25 633.314 C 843.243 616.634 799.532 612.731 780.102 610.002 C 757.951 606.89 667.018 598.534 652.461 612.586 C 648.583 616.33 647.81 623.897 647.375 629.025 C 644.374 664.377 648.79 725.926 672.124 753.112 C 695.485 780.33 731.253 778.963 763.923 781.256 C 761.925 785.184 759.726 791.679 755.376 793.421 C 743.653 798.115 697.566 789.436 685.569 784.27 C 638.117 763.839 631.729 699.577 629.631 654.48 C 629.18 644.785 630.899 630.07 627.468 621.34 C 624.019 619.502 619.758 620.038 615.944 620.059 C 616.1 612.854 615.273 602.904 620.602 597.305 C 629.806 587.634 679.495 587.118 693.631 586.468 z"/>
<path transform="translate(0,0)" fill="rgb(5,12,13)" d="M 1068.01 621.421 C 1096.6 618.195 1201.52 622.672 1225.47 636.446 C 1230.51 639.347 1233.44 643.179 1234.87 648.827 C 1236.88 656.792 1236.04 665.774 1235.64 673.902 C 1234 707.661 1226.85 740.632 1208.75 769.659 C 1197.97 786.944 1180.31 795.455 1161.05 799.787 C 1157.58 800.266 1154.09 800.656 1150.6 800.956 C 1113.75 804.413 1063.32 800.891 1033.94 775.438 C 1011.57 756.066 998.19 709.465 995.773 681.011 C 994.589 667.076 994.203 646.845 1004.02 635.776 C 1015.8 622.493 1051.44 622.869 1068.01 621.421 z"/>
<path transform="translate(0,0)" fill="rgb(46,79,86)" d="M 1086.94 637.843 C 1095.65 637.684 1122.8 637.697 1129.03 642.567 C 1129.3 646.749 1126.46 651.276 1124.3 654.718 C 1117.62 665.353 1108.99 675.363 1101.39 685.397 C 1085.45 706.517 1069.38 727.537 1053.18 748.457 C 1050.22 752.269 1046.88 755.697 1043.56 759.195 C 1030.57 751.955 1025.61 742.97 1021.59 729.092 C 1028.05 712.496 1073.47 653.588 1086.94 637.843 z"/>
<path transform="translate(0,0)" fill="rgb(5,45,55)" d="M 343.487 1178.66 C 379.675 1065.34 520.425 1030.08 616.125 984.933 C 630.673 978.07 644.446 970.063 658.239 961.809 C 652.72 974.013 648.471 986.918 641.856 998.594 C 631.982 1022.82 602.251 1091.31 587.698 1110.03 C 581.619 1117.84 575.509 1123.19 566.303 1127.05 C 551.991 1133.05 536.785 1137.29 521.971 1141.89 C 496.769 1149.71 471.086 1157.39 446.348 1166.54 C 433.256 1171.39 420.115 1176.45 407.451 1182.33 C 394.478 1188.36 381.448 1195.92 367.715 1200 C 361.073 1201.98 351.729 1203.6 345.149 1200.57 C 343.2 1199.67 341.453 1198.11 340.625 1196.1 C 338.82 1191.7 341.334 1182.66 343.487 1178.66 z"/>
<path transform="translate(0,0)" fill="rgb(46,79,86)" d="M 343.487 1178.66 C 379.675 1065.34 520.425 1030.08 616.125 984.933 C 630.673 978.07 644.446 970.063 658.239 961.809 C 652.72 974.013 648.471 986.918 641.856 998.594 C 615.959 1005.07 590.277 1016.45 565.383 1026.1 C 503.325 1050.14 436.366 1078.78 387.777 1125.7 C 371.715 1141.2 358.135 1158.64 345.561 1177.01 C 344.748 1178.19 344.988 1177.81 343.487 1178.66 z"/>
<path transform="translate(0,0)" fill="rgb(251,151,59)" d="M 911.855 738.085 C 934.672 737.789 952.378 749.475 968.274 764.901 C 980.218 776.492 992.095 790.714 997.65 806.635 C 954.266 837.931 862.839 827.16 811.6 818.867 C 802.297 817.362 790.277 815.797 782.87 809.608 C 781.775 807.341 781.746 806.207 782.022 803.718 C 785.772 795.057 790.399 788.276 797.11 781.606 C 821.233 757.631 877.758 737.852 911.855 738.085 z"/>
<path transform="translate(0,0)" fill="rgb(244,198,111)" d="M 782.022 803.718 C 785.772 795.057 790.399 788.276 797.11 781.606 C 821.233 757.631 877.758 737.852 911.855 738.085 C 907.389 745.633 840.395 775.499 827.465 782.882 C 818.228 788.156 798.26 802.167 789.513 804.644 C 786.963 805.366 784.459 804.444 782.022 803.718 z"/>
<path transform="translate(0,0)" fill="rgb(46,79,86)" d="M 725.232 622.044 C 734.672 621.672 757.995 621.013 766.126 624.882 C 767.653 625.608 767.946 627.069 768.294 628.649 C 768.811 631.001 767.803 632.7 766.623 634.619 C 759.611 646.032 750.281 656.798 742.32 667.624 C 727.468 688.013 712.925 708.627 698.697 729.456 C 695.974 733.834 692.834 737.989 689.847 742.192 C 688.131 741.419 686.454 740.563 684.822 739.626 C 673.887 733.366 670.883 721.773 667.739 710.472 C 676.504 688.601 709.966 641.637 725.232 622.044 z"/>
<path transform="translate(0,0)" fill="rgb(251,151,59)" d="M 1008.92 828.965 L 1009.81 830.079 C 1008.7 832.095 1007.51 833.946 1006.15 835.801 C 986.928 861.999 956.71 884.186 923.974 888.839 C 894.487 893.031 869.083 881.4 846.048 864.104 C 838.474 857.801 831.703 850.631 825.141 843.302 C 873.985 851.122 920.864 854.584 969.51 842.857 C 983.046 839.594 996.594 835.543 1008.92 828.965 z"/>
<path transform="translate(0,0)" fill="rgb(253,241,215)" d="M 921.624 671.086 C 928.276 670.914 933.372 671.608 939.014 675.418 C 954.885 686.139 960.647 712.243 964.344 729.733 C 958.097 725.268 951.643 721.895 944.62 718.847 C 927.729 712.003 909.135 712.576 891.438 715.25 C 893.949 706.319 897.018 696.606 901.441 688.437 C 906.427 679.231 911.59 674.109 921.624 671.086 z"/>
</svg>